<svg width="109" height="100" viewBox="0 0 109 100" fill="none" xmlns="http://www.w3.org/2000/svg">
<g clip-path="url(#clip0_101_55)">
<mask id="mask0_101_55" style="mask-type:luminance" maskUnits="userSpaceOnUse" x="-6" y="16" width="115" height="85">
<path d="M108.844 16H-6V100.339H108.844V16Z" fill="white"/>
</mask>
<g mask="url(#mask0_101_55)">
<path d="M57.8904 111.4C63.4905 117.904 72.022 116.941 77.0885 111.94C81.577 107.51 80.4013 100.663 78.1298 97.5799C73.3962 91.1558 65.4416 93.143 62.661 96.4111C60.5626 98.8774 59.5413 105.043 63.7533 107.465C67.7374 109.757 71.9253 107.762 72.0894 106.284C71.9759 108.487 64.7408 112.645 59.3449 106.144" fill="#7779B8"/>
<path d="M17.9333 88.3315C14.6873 91.9847 10.4323 97.5259 8.2406 105.837C8.25212 105.828 8.26316 105.818 8.27488 105.809C17.2011 98.5991 16.2012 102.456 21.4809 99.9486C26.5911 97.5214 24.5771 94.2203 26.1721 91.4053C26.0727 91.3949 19.6265 89.5725 17.9333 88.3315Z" fill="#7779B8"/>
<path opacity="0.24" d="M18.6052 93.0217C20.3959 94.6675 21.1703 97.0994 21.1517 100.099C21.2599 100.05 21.3671 100.003 21.481 99.9487C24.1089 98.7005 24.8517 97.2211 25.1712 95.6957C22.5616 95.0093 20.3945 94.0984 18.6052 93.0217Z" fill="#605985"/>
<path d="M15.8975 86.561C11.6558 88.7752 6.42093 93.1151 3.69604 97.5657C6.66102 96.6191 9.50068 96.262 12.1533 96.2824C12.1533 96.2824 15.6546 90.8626 18.1237 88.4678C17.4806 87.982 16.4874 87.1654 15.8975 86.561Z" fill="#636CA8"/>
<mask id="mask1_101_55" style="mask-type:alpha" maskUnits="userSpaceOnUse" x="25" y="82" width="36" height="42">
<path d="M57.7393 85.5727C53.1977 81.9227 33.9411 82.2502 28.8298 85.5664C21.0286 90.6275 28.8418 115.388 28.8418 115.388C28.8642 115.506 30.8046 121.052 30.8046 121.052C31.939 124.273 34.215 124.628 35.3513 121.407C35.3513 121.407 36.9006 115.76 36.9684 115.724C39.4608 116.412 48.2982 115.941 49.8626 115.584C50.0239 115.66 51.2438 121.483 51.2438 121.483C52.3782 124.705 54.8398 124.277 55.9761 121.056L57.7441 115.394C57.7441 115.394 64.6713 91.1431 57.7393 85.5727Z" fill="#7779B8"/>
</mask>
<g mask="url(#mask1_101_55)">
<path d="M57.7393 85.9516C53.1977 82.3016 33.9411 82.6291 28.8298 85.9453C21.0286 91.0064 28.8418 115.767 28.8418 115.767C28.8642 115.885 30.8045 121.431 30.8045 121.431C31.939 124.652 34.215 125.007 35.3513 121.786C35.3513 121.786 36.9006 116.139 36.9684 116.103C39.4607 116.791 48.2982 116.32 49.8626 115.963C50.0239 116.039 51.2437 121.862 51.2437 121.862C52.3782 125.084 54.8398 124.656 55.9761 121.435L57.7441 115.773C57.7441 115.773 64.6713 91.522 57.7393 85.9516Z" fill="#7779B8"/>
</g>
<mask id="mask2_101_55" style="mask-type:alpha" maskUnits="userSpaceOnUse" x="34" y="88" width="19" height="18">
<path d="M52.5186 97.1252C52.4974 101.973 43.331 105.866 43.331 105.866C43.331 105.866 34.1987 101.9 34.2198 97.0518C34.241 92.2038 36.1103 88.2812 43.4075 88.3105C51.1003 88.3413 52.5397 92.2772 52.5186 97.1252Z" fill="#FCFDFF"/>
</mask>
<g mask="url(#mask2_101_55)">
<path d="M52.5186 97.1252C52.4974 101.973 43.331 105.866 43.331 105.866C43.331 105.866 34.1987 101.9 34.2198 97.0518C34.241 92.2038 36.1103 88.2812 43.4075 88.3105C51.1003 88.3413 52.5397 92.2772 52.5186 97.1252Z" fill="#FCFDFF"/>
<path d="M43.5051 96.0466C41.557 97.5869 36.8143 100.671 35.8293 101.145L36.1195 101.748C37.1258 101.263 41.9472 98.1317 43.9202 96.5715L43.5051 96.0466Z" fill="#605985"/>
<path d="M51.5065 95.6599C49.5424 97.2129 40.7623 103.526 39.3596 104.026L39.5844 104.656C41.1404 104.101 50.1947 97.5504 51.9216 96.1847L51.5065 95.6599Z" fill="#605985"/>
<path d="M43.3728 96.0466L42.9578 96.5715C44.9314 98.132 49.7529 101.264 50.7588 101.748L51.049 101.145C50.064 100.671 45.3216 97.5872 43.3728 96.0466Z" fill="#605985"/>
<path d="M35.4983 95.7681L35.2907 96.0306L35.0833 96.2929C36.7824 97.6368 45.7243 104.096 47.2933 104.656L47.5182 104.026C46.1034 103.521 37.4308 97.2962 35.4983 95.7681Z" fill="#605985"/>
</g>
<path opacity="0.3" d="M59.4356 94.6743C59.4298 96.0031 52.3098 101.018 43.203 100.981C34.0963 100.945 26.9005 96.4639 26.9063 95.1351C26.9121 93.8063 33.8386 94.8232 42.9453 94.8598C52.052 94.8963 59.4414 93.3455 59.4356 94.6743Z" fill="#605985"/>
<path d="M20.7923 47.2853C23.5556 44.5433 32.7886 42.5176 39.6533 42.0682C47.4718 41.5564 56.3498 43.0041 61.9366 45.3615C73.5171 40.0616 83.4249 53.2712 84.1144 55.8202C84.6624 57.846 79.0813 59.6757 69.2381 57.5092C69.2381 57.5092 72.2774 66.9876 72.7824 72.3028C73.4504 79.3328 73.3016 94.7937 43.1449 96.868C12.9881 98.9423 10.3919 84.8986 9.77618 76.1499C9.49474 72.1504 10.6796 62.5975 11.251 58.865C6.68852 58.0044 2.33372 45.9306 4.36309 40.1595C5.40294 37.2023 18.0975 42.0327 20.7923 47.2853Z" fill="#7779B8"/>
<path opacity="0.25" d="M84.1424 56.1562C83.541 57.0207 75.9561 58.2204 68.538 55.3354C66.9205 54.7064 67.4621 55.7484 69.3263 57.7882C69.2703 57.6096 69.2381 57.5092 69.2381 57.5092C78.5323 59.5547 84.0198 58.0373 84.1424 56.1562Z" fill="#605985"/>
<path opacity="0.25" d="M12.9459 57.5025C5.95159 55.1082 3.95878 43.1044 3.94483 42.3211C3.94455 42.3034 3.93594 42.2908 3.92012 42.2827C3.3047 48.4453 7.16803 58.0358 11.2124 58.8548C13.2272 58.3569 14.0341 57.875 12.9459 57.5025Z" fill="#605985"/>
<path d="M40.8092 64.3092C26.4286 65.2951 18.2645 71.1279 18.937 80.9374C19.6367 91.1442 29.1037 93.2025 42.8065 92.2631C56.509 91.3238 65.6071 88.0025 64.9068 77.786C64.1958 67.4154 55.1898 63.3234 40.8092 64.3092Z" fill="#E1BF7F"/>
<path opacity="0.2" d="M19.8049 74.9852L19.6804 75.4542C32.3183 70.1318 54.5162 69.2846 63.7298 72.6196C60.3688 66.6896 51.7753 63.7742 40.679 64.5348C29.9095 65.2731 22.4952 69.0901 19.8049 74.9852Z" fill="#605985"/>
<path d="M19.9363 74.4984L19.9465 74.5072C31.4947 70.2482 52.9153 68.7813 63.1635 71.6593C59.8088 65.8216 51.9159 63.4226 40.8196 64.1833C30.0501 64.9216 22.6325 68.6889 19.9363 74.4984Z" fill="#D1D1D1"/>
<path d="M40.4771 58.0762L34.698 64.7059L41.3277 70.485L47.1068 63.8552L40.4771 58.0762Z" fill="white"/>
<path opacity="0.23" d="M41.3279 70.4847L47.1071 63.8551L40.4788 58.0774L41.3279 70.4847Z" fill="#9E9FC1"/>
<path opacity="0.9" d="M30.0541 75.5196C29.871 76.7151 31.0698 76.5805 32.1624 76.4578C33.255 76.3351 34.6335 76.9142 34.1668 75.0575C33.9824 74.3242 33.074 73.8026 32.0552 73.8469C30.5818 73.9482 30.1423 74.9438 30.0541 75.5196Z" fill="white"/>
<path opacity="0.9" d="M53.1405 73.7978C53.5639 74.9307 52.3629 75.0438 51.2683 75.1469C50.1737 75.25 48.9426 76.0985 49.0201 74.1856C49.0507 73.4302 49.8335 72.734 50.8398 72.5692C52.2396 72.3298 52.9365 73.2522 53.1405 73.7978Z" fill="white"/>
<path d="M32.6495 83.0071C33.856 82.9241 34.7669 81.8787 34.6839 80.6722C34.6009 79.4656 33.5555 78.5548 32.349 78.6378C31.1424 78.7208 30.2316 79.7662 30.3146 80.9727C30.3976 82.1793 31.443 83.0901 32.6495 83.0071Z" fill="#2B366E"/>
<path d="M32.051 81.7096C32.2115 81.6985 32.3327 81.5595 32.3216 81.399C32.3106 81.2385 32.1715 81.1174 32.011 81.1284C31.8506 81.1394 31.7294 81.2785 31.7404 81.439C31.7515 81.5995 31.8905 81.7206 32.051 81.7096Z" fill="white"/>
<path d="M33.1288 80.9071C33.5114 80.8808 33.8002 80.5493 33.7738 80.1667C33.7475 79.7842 33.4161 79.4954 33.0335 79.5217C32.6509 79.548 32.3621 79.8795 32.3884 80.262C32.4147 80.6446 32.7462 80.9334 33.1288 80.9071Z" fill="white"/>
<path d="M51.6296 81.7012C52.8361 81.6182 53.7468 80.5729 53.6639 79.3664C53.5809 78.16 52.5356 77.2492 51.3291 77.3322C50.1226 77.4152 49.2118 78.4605 49.2948 79.667C49.3778 80.8734 50.4231 81.7842 51.6296 81.7012Z" fill="#2B366E"/>
<path d="M52.1926 80.3242C52.3531 80.3132 52.4743 80.1742 52.4632 80.0137C52.4522 79.8532 52.3132 79.7321 52.1527 79.7431C51.9922 79.7541 51.871 79.8932 51.8821 80.0537C51.8931 80.2141 52.0322 80.3353 52.1926 80.3242Z" fill="white"/>
<path d="M51.0155 79.6764C51.398 79.6501 51.6868 79.3186 51.6605 78.9361C51.6342 78.5535 51.3027 78.2647 50.9202 78.291C50.5376 78.3173 50.2488 78.6488 50.2751 79.0313C50.3015 79.4139 50.6329 79.7027 51.0155 79.6764Z" fill="white"/>
<path d="M49.2661 84.1382C49.449 86.8061 46.4395 88.6015 42.5934 88.8652C38.7472 89.1288 35.5209 87.7609 35.338 85.093C35.1551 82.4251 38.0849 79.4675 41.931 79.2038C45.7771 78.9401 49.0831 81.4703 49.2661 84.1382Z" fill="white"/>
<path d="M44.5788 81.983C44.6393 82.8653 43.5927 83.6558 42.2416 83.7484C40.8906 83.841 39.7463 83.2007 39.6858 82.3184C39.6253 81.4361 40.708 81.1782 42.0591 81.0856C43.4102 80.993 44.5183 81.1006 44.5788 81.983Z" fill="#2B366E"/>
<path opacity="0.8" d="M42.9641 81.8024C42.9851 82.1095 42.6208 82.3846 42.1505 82.4169C41.6803 82.4491 41.282 82.2262 41.2609 81.9191C41.2398 81.612 41.6167 81.5222 42.087 81.49C42.5573 81.4577 42.943 81.4952 42.9641 81.8024Z" fill="white"/>
<path d="M45.2395 83.6706C45.0562 83.6359 44.8759 83.753 44.8386 83.9375C44.7768 84.245 44.3909 84.5415 43.9216 84.6418C43.6676 84.6983 43.0477 84.7533 42.6158 84.2237L42.5213 82.8498C42.5083 82.6621 42.346 82.5206 42.1582 82.5335C41.9705 82.5464 41.829 82.7088 41.842 82.8965L41.9365 84.2705C41.5817 84.8545 40.9599 84.8814 40.7009 84.864C40.2218 84.8283 39.7987 84.5874 39.6954 84.2913C39.6331 84.1129 39.4384 84.0203 39.2614 84.0818C39.084 84.144 38.9904 84.3384 39.0522 84.5155C39.2476 85.0739 39.8897 85.4895 40.6509 85.5426C41.2735 85.5861 41.8935 85.3797 42.3208 84.895C42.942 85.4443 43.6408 85.4088 44.0641 85.3078C44.8064 85.1308 45.3896 84.6514 45.5064 84.0715C45.5434 83.887 45.424 83.7079 45.2395 83.6706Z" fill="#2B366E"/>
<path d="M34 99.5388C34 100.803 32.6569 99.9966 31 99.9966C29.3431 99.9966 28 100.803 28 99.5388C28 98.2747 29.3431 97.25 31 97.25C32.6569 97.25 34 98.2747 34 99.5388Z" fill="#C5CDD4"/>
<path d="M58.1511 93.3389C58.1511 93.3389 62.1075 89.5579 62.1322 89.5122C62.4632 88.9027 64.2968 87.5062 65.6075 88.7258C66.9688 89.9927 66.3045 91.5612 65.3288 93.1249C65.3288 93.1249 62.3305 97.6039 58.3193 99.5528" fill="#7979B8"/>
<path d="M65.4171 93.0433C65.4171 93.0433 61.5078 90.6806 62.139 89.5193C62.476 88.8991 64.3426 87.4782 65.6762 88.7184C67.0614 90.0066 66.1483 92.3761 65.4171 93.0433Z" fill="#C5CDD4"/>
</g>
</g>
<path d="M84.6998 5.99728C83.7736 4.23687 82.3236 2.77008 80.5273 1.70611C78.7318 0.646855 76.5644 5.06345e-05 74.2121 5.06345e-05C71.3126 -0.00712124 68.9035 0.748316 67.0853 1.7945C65.2599 2.83695 64.4728 4.05068 64.4728 4.05068C64.166 4.31689 63.993 4.70417 64.0002 5.10931C64.0085 5.51501 64.1953 5.89582 64.5116 6.14881L67.0381 8.1724C67.5531 8.58471 68.2901 8.56925 68.7872 8.13598C68.7872 8.13598 69.0975 7.57503 70.0702 7.01942C71.0482 6.46746 72.3163 6.02288 74.2121 6.0169C75.8657 6.01332 77.3074 6.63038 78.2914 7.47357C78.7802 7.89129 79.1453 8.35908 79.3691 8.787C79.5947 9.21844 79.677 9.5956 79.6759 9.88205C79.6711 10.85 79.4831 11.4831 79.2116 12.0225C79.0046 12.4253 78.7343 12.7828 78.3863 13.1295C77.8671 13.6487 77.163 14.1284 76.373 14.5694C75.5823 15.0158 74.7301 15.4084 73.869 15.8829C72.8862 16.4271 71.8461 17.2088 71.0775 18.3821C70.6944 18.9621 70.3948 19.6256 70.2045 20.3256C70.0117 21.0262 69.9247 21.7608 69.9247 22.5102C69.9247 23.3098 69.9247 23.9663 69.9247 23.9663C69.9247 24.72 70.5357 25.331 71.2894 25.331H74.5774C75.3311 25.331 75.9422 24.72 75.9422 23.9663C75.9422 23.9663 75.9422 23.3098 75.9422 22.5102C75.9422 22.2215 75.975 22.0353 76.0066 21.9171C76.061 21.7405 76.0914 21.6963 76.1803 21.5889C76.271 21.4868 76.4542 21.3305 76.7919 21.1437C77.2854 20.8663 78.0785 20.4915 78.9765 20.0063C80.3209 19.2712 81.9554 18.2734 83.3339 16.627C84.0196 15.8053 84.6258 14.8159 85.0441 13.6761C85.4661 12.5363 85.6939 11.2552 85.6928 9.88205C85.6916 8.49099 85.3144 7.16982 84.6998 5.99728Z" fill="#FF4646"/>
<path d="M72.9345 28.5778C70.8847 28.5778 69.2228 30.2403 69.2228 32.2895C69.2228 34.3381 70.8848 36 72.9345 36C74.9831 36 76.6444 34.3381 76.6444 32.2895C76.6444 30.2403 74.9831 28.5778 72.9345 28.5778Z" fill="#FF4646"/>
<defs>
<clipPath id="clip0_101_55">
<rect width="109" height="64" fill="white" transform="translate(0 36)"/>
</clipPath>
</defs>
</svg>
